<svg xmlns="http://www.w3.org/2000/svg" viewBox="0 0 80 80"><path d="M79.4 21.23c.72-.75.79-1.51.21-2.12a.797.797 0 0 0-.17-.15c-.61-.44-1.45-.31-1.89.3-.15.15-.29.3-.44.46-4.71 4.87-9.43 9.74-14.14 14.61-.2.2-.4.39-.52.51l-5.41-5.61c.1-.11.26-.29.42-.45l8.78-9.08c1.01-1.05 2.04-2.08 3.03-3.15.53-.51.55-1.36.04-1.89-.03-.03-.06-.06-.08-.09-.51-.49-1.31-.48-1.81.02-.16.14-.3.3-.45.45-3.77 3.9-7.55 7.8-11.32 11.7-.2.2-.41.39-.53.52l-4.75-4.91c.14-.15.33-.37.53-.57 1.43-1.48 2.9-2.94 4.28-4.48.32-.4.45-.92.37-1.43-.18-.45-.57-.78-1.04-.89-.48 0-.95.19-1.28.53-1.63 1.62-3.21 3.3-4.79 4.95l-4.83-5.07c.21-.15.42-.32.61-.5 3.1-3.19 6.19-6.39 9.28-9.59.21-.2.4-.42.58-.65.39-.55.32-1.3-.16-1.76-.47-.46-1.2-.5-1.72-.1-.2.17-.39.36-.57.55-2.51 2.58-5.01 5.17-7.51 7.76-.81.84-1.6 1.69-2.37 2.51-2.81-1.22-3.89-.99-5.99 1.18-2.24 2.33-4.49 4.65-6.75 6.96-.18.19-.48.42-.69.4-2.31-.26-3.92.73-5.03 3.06-.52-.61-.95-1.19-1.45-1.69-.06-.07-.13-.13-.19-.2a4.376 4.376 0 0 0-6.19.11 4.856 4.856 0 0 0 .06 6.68c.29.24.61.44.94.6-2.71 1.61-3.64 3.71-2.83 6.01.21.43.09.94-.28 1.24-3.77 3.87-7.51 7.77-11.29 11.63a6.512 6.512 0 0 0-2.04 3.34v1.13a7.426 7.426 0 0 0 2.19 3.34l20.34 21c2.06 2.13 4.27 2.12 6.35-.02 2.88-2.96 5.75-5.93 8.61-8.91.24-.35.72-.43 1.06-.19 2.19 1.08 4.06 2.73 5.4 4.77.8 1.23 1.55 2.48 2.32 3.73 1.64 2.64 4.13 2.94 6.27.74 5.14-5.31 10.28-10.61 15.42-15.93 2.08-2.15 1.86-4.67-.56-6.4a14.461 14.461 0 0 1-5.22-6.96 26.81 26.81 0 0 0-1.33-3c-.22-.43-.24-.68.12-1.03.96-.94 1.9-1.92 2.82-2.91a4.147 4.147 0 0 0 .66-4.91c-.08-.16-.15-.32-.25-.56.23-.21.46-.39.66-.6 4.85-5 9.69-10 14.53-15.01ZM34.89 68.28l-7.95 8.22c-.92.95-1.55.96-2.45.02-7.05-7.29-14.11-14.58-21.16-21.87-.82-.84-.89-1.54-.16-2.3 4.11-4.27 8.24-8.53 12.41-12.84l1.36 1.38c-.15.1-.25.18-.36.24a4.726 4.726 0 0 0-1.04 7.56c3.2 3.32 6.4 6.63 9.61 9.93 1.94 1.99 3.82 4.05 5.86 5.93 1.37 1.16 2.8 2.24 4.28 3.25-.1.11-.25.29-.41.46Zm31.1-9.73c.9.64.94 1.21.15 2.03-5.17 5.35-10.34 10.69-15.52 16.04-.85.87-1.38.79-2.05-.23-1.27-1.93-2.47-3.92-3.88-5.74a14.116 14.116 0 0 0-5.61-4.13 24.592 24.592 0 0 1-7.89-5.53c-4.47-4.66-8.99-9.28-13.46-13.94-.41-.52-.78-1.08-1.09-1.67.07-.76.51-1.44 1.18-1.81.65-.35 1.44-.23 1.96.29.58.54 1.12 1.12 1.67 1.69l3.42 3.54c.75.77 1.53.86 2.12.26s.52-1.43-.22-2.19c-3.26-3.37-6.51-6.74-9.78-10.1-1.12-1.15-1.27-2.3-.45-3.15s1.92-.68 3.05.48c3.2 3.31 6.41 6.62 9.61 9.93.15.15.29.31.45.45h.01c.52.5 1.34.47 1.82-.05.51-.53.52-1.36.03-1.9-.15-.18-.32-.35-.49-.52-4.42-4.57-8.84-9.13-13.26-13.7-.23-.22-.44-.46-.64-.71-.55-.77-.47-1.82.19-2.5.65-.67 1.72-.71 2.42-.08.28.25.54.51.79.78 4.36 4.51 8.72 9.02 13.09 13.53.18.2.36.38.56.56.51.47 1.31.43 1.77-.09.5-.49.54-1.29.09-1.83-.17-.21-.35-.4-.54-.58-2.98-3.08-5.98-6.15-8.93-9.26-.4-.45-.68-.99-.81-1.58-.13-.71.23-1.42.89-1.73.6-.37 1.36-.33 1.91.1.25.19.49.41.7.64l10.17 10.5c2.37 2.45 4.74 4.92 7.14 7.34.35.36.84.57 1.34.57.47-.12.85-.46 1.01-.92.06-.54-.1-1.07-.44-1.49-1.77-1.93-3.63-3.78-5.44-5.68-.31-.32-.56-.7-.74-1.11-.29-.75-.06-1.6.56-2.1.64-.51 1.54-.51 2.18 0 .23.18.44.38.63.6 3.44 3.56 6.88 7.12 10.33 10.67 1.59 1.62 2.8 3.58 3.55 5.72 1.16 3.48 3.4 6.5 6.4 8.61Zm-4.33-17.92-2.61 2.76c-1.13-1.15-2.2-2.24-3.27-3.34-2.71-2.79-5.51-5.5-8.1-8.41-2.38-2.68-6.33-2.35-7.84.98l-8.78-9.05c.1-.12.27-.31.45-.49 2.19-2.27 4.38-4.53 6.57-6.79.89-.92 1.51-.92 2.4 0 7.05 7.28 14.11 14.57 21.16 21.86.13.09.24.21.34.33.51.69.37 1.66-.32 2.17ZM64.6 7.49c.25-.32.48-.85.86-1.02.45-.17.94-.12 1.35.13.82.71 1.58 1.48 2.26 2.32.42.5.39 1.24-.08 1.69a1.1 1.1 0 0 1-1.53.32c-.03-.02-.05-.04-.08-.06-.87-.8-1.7-1.65-2.48-2.54-.14-.16-.16-.44-.29-.85Zm-5.73-5.41c-.13-.14-.13-.4-.24-.81.23-.3.45-.83.82-1 .44-.17.94-.13 1.35.12.82.7 1.58 1.47 2.26 2.31.42.49.4 1.23-.06 1.69a1.1 1.1 0 0 1-1.53.32c-.02-.02-.05-.03-.07-.05-.89-.82-1.73-1.68-2.52-2.59Zm-.24-.81Zm4.49 5.77c.18.46.14.97-.09 1.4-.68.85-1.43 1.63-2.24 2.34-.49.43-1.23.38-1.66-.11l-.03-.04c-.48-.44-.55-1.17-.15-1.69.74-.86 1.53-1.68 2.36-2.45.15-.15.42-.18.82-.33.31.26.84.48 1 .87Zm1.97-2.6a1.23 1.23 0 0 1-.16-1.68c.74-.86 1.53-1.67 2.36-2.45.17-.16.48-.18.87-.31.3.26.81.47.95.84.17.46.13.97-.1 1.4-.68.84-1.43 1.63-2.24 2.35-.51.43-1.27.36-1.7-.14Zm-42 11.08c-.09-1.12-.09-2.25 0-3.37.08-.66.69-1.13 1.35-1.04h.02c.66.05 1.18.59 1.19 1.26.03.51 0 1.02 0 1.53 0 .46.02.92 0 1.37 0 .69-.53 1.27-1.22 1.33a1.23 1.23 0 0 1-1.35-1.07Zm-5.41-5.84c.01-.72.59-1.3 1.31-1.32.44-.03.88 0 1.33 0 .47 0 .94-.03 1.4 0 .75.05 1.32.7 1.27 1.45-.04.65-.54 1.17-1.18 1.26-.99.07-1.98.07-2.96 0-.69-.08-1.21-.69-1.17-1.38ZM23.1 7.3c-.1-1.15-.09-2.3 0-3.44.06-.62.62-1.07 1.24-1.01.05 0 .1.01.15.02.64.03 1.15.56 1.15 1.2.04.51 0 1.02 0 1.53 0 .48.02.97 0 1.45 0 .67-.51 1.23-1.18 1.28a1.19 1.19 0 0 1-1.37-.98v-.04Zm2.58 2.36c.02-.72.61-1.29 1.33-1.3.44-.02.88 0 1.33 0 .47 0 .94-.02 1.4.02.75.06 1.3.71 1.24 1.46a1.36 1.36 0 0 1-1.12 1.23c-1.01.07-2.03.07-3.04 0-.7-.08-1.2-.7-1.15-1.4Z"></path></svg>