<svg xmlns="http://www.w3.org/2000/svg" viewBox="0 0 50 50"><path d="M45.52 5.01h-3.38c-.15 0-.3-.02-.48-.03 0-.54.02-1.04 0-1.54 0-.36-.06-.72-.15-1.08A3.342 3.342 0 0 0 38.4 0 3.327 3.327 0 0 0 35 3.25c-.01.58 0 1.16 0 1.74h-6.67V3.24A3.339 3.339 0 0 0 24.9 0a3.339 3.339 0 0 0-3.24 3.43v1.54H15v-1.6C15 1.53 13.51.03 11.67.03S8.33 1.52 8.33 3.36v1.65H4.49C1.75 5.01 0 6.74 0 9.48v32.7c0 2.75 1.74 4.48 4.49 4.48h22.6c.84 0 1.24-.28 1.23-.84 0-.57-.4-.82-1.26-.82H4.42c-1.72 0-2.75-1.03-2.75-2.75V16.72h46.66v13.94c0 .62.31.99.81 1.01.52.02.85-.37.86-1.02V9.46c0-2.71-1.75-4.45-4.47-4.45Zm-8.86-1.58v-.18a1.667 1.667 0 1 1 3.33.19c.01 1.61.01 3.23 0 4.84v.13c-.04.92-.81 1.63-1.73 1.59-.92-.04-1.63-.81-1.59-1.73V3.43ZM25.07 1.68c.92.04 1.63.82 1.59 1.74v5.02c-.05.92-.84 1.62-1.76 1.56-.92-.05-1.62-.84-1.56-1.76V3.28c.04-.92.82-1.63 1.74-1.59ZM10.01 3.42v-.1a1.665 1.665 0 1 1 3.33.11v2.45c0 .8.01 1.6 0 2.39v.13a1.666 1.666 0 1 1-3.33-.15V3.41Zm38.31 11.55H1.68c0-2.01-.03-3.99.01-5.97.04-1.22 1-2.22 2.23-2.3 1.45-.06 2.91-.02 4.42-.02v1.74c.04 1.84 1.57 3.3 3.41 3.26 1.84-.04 3.3-1.57 3.26-3.41V6.7h6.66v1.78c.08 1.84 1.64 3.27 3.48 3.19s3.27-1.64 3.19-3.48V6.71h6.67V8.41a3.33 3.33 0 1 0 6.66-.1V6.68h1.14c1.02 0 2.05-.02 3.07 0 1.3 0 2.36 1.02 2.43 2.32.05 1.98.01 3.95.01 5.97Zm-9.03 13.37h-.11c-5.98-.01-10.84 4.82-10.86 10.8-.01 5.98 4.82 10.84 10.8 10.86 5.98.01 10.84-4.82 10.86-10.8 0-5.94-4.76-10.78-10.7-10.86Zm-.16 19.99c-5.06-.01-9.15-4.13-9.14-9.19.01-5.06 4.13-9.15 9.19-9.14 5.06.02 9.15 4.14 9.13 9.2-.02 5.06-4.13 9.14-9.19 9.13Zm-25.8-25.86c-.01-.9-.74-1.62-1.64-1.62-.55-.02-1.11 0-1.66 0s-1.15-.01-1.72 0c-.9 0-1.62.73-1.63 1.62-.02.87-.02 1.74 0 2.6.02.88.73 1.58 1.61 1.59 1.15.02 2.29.02 3.44 0 .88-.01 1.59-.72 1.61-1.59.02-.87.02-1.74 0-2.6Zm-1.69 2.5H8.36v-2.43h3.28v2.43Zm9.99-4.12c-1.09-.01-2.19-.01-3.28 0h-.08c-.91.02-1.63.77-1.61 1.68-.01.82-.01 1.63 0 2.45v.09c.03.92.8 1.64 1.72 1.61h1.56c.57 0 1.15.01 1.72 0h.01c.91 0 1.65-.74 1.64-1.66.02-.83.02-1.67 0-2.5v-.06c-.02-.91-.78-1.63-1.69-1.61Zm0 4.14h-3.27v-2.44h3.27v2.44Zm6.76 1.69H30c.54 0 1.08.01 1.61 0h.1c.92-.03 1.63-.8 1.6-1.71.01-.8.01-1.6 0-2.39v-.11c-.03-.91-.79-1.63-1.7-1.61-1.09-.01-2.19-.01-3.28 0h-.08c-.91.02-1.63.78-1.6 1.68-.01.82-.01 1.63 0 2.45v.1c.03.92.81 1.63 1.72 1.6Zm-.04-4.14h3.27v2.44h-3.27v-2.44ZM40 26.68c.56 0 1.11.01 1.67 0 .91 0 1.65-.75 1.64-1.66.02-.83.02-1.67 0-2.5v-.02c0-.91-.74-1.64-1.65-1.64-1.11-.02-2.22-.02-3.33 0h-.08c-.91.02-1.62.78-1.6 1.69-.01.82-.01 1.63 0 2.45v.05c.01.92.76 1.65 1.68 1.64.55.01 1.11 0 1.67 0Zm-1.64-4.13h3.27v2.44h-3.27v-2.44ZM8.35 34.18H11.69c.91-.01 1.64-.76 1.63-1.67.02-.83.02-1.67 0-2.5v-.02c0-.91-.75-1.64-1.66-1.63-1.11-.02-2.22-.02-3.33 0h-.07c-.91.03-1.62.79-1.59 1.7-.01.82-.01 1.63 0 2.45v.05c.01.92.77 1.65 1.68 1.63Zm0-4.14h3.28v2.44H8.35v-2.44Zm13.31-1.68c-1.11-.02-2.22-.02-3.33 0h-.08c-.91.02-1.62.78-1.6 1.69-.01.82-.01 1.63 0 2.45v.05c.01.92.76 1.65 1.68 1.64.55.01 1.11 0 1.67 0 .54 0 1.08.01 1.61 0h.06c.91 0 1.65-.75 1.65-1.67.02-.83.02-1.67 0-2.5V30c0-.91-.74-1.64-1.65-1.64Zm-.05 4.15h-3.25v-2.45h3.25v2.45Zm-9.9 9.17c.88-.02 1.58-.72 1.61-1.6.02-.87.02-1.74 0-2.6 0-.9-.74-1.62-1.64-1.62a95.21 95.21 0 0 0-3.38 0c-.9 0-1.63.72-1.63 1.62-.02.85-.02 1.7 0 2.55 0 .92.75 1.66 1.66 1.65.54.01 1.08 0 1.61 0 .59 0 1.18.02 1.77 0Zm-3.36-1.7v-2.42h3.29v2.42H8.35Zm8.32.07c.01.9.74 1.62 1.64 1.62 1.13.02 2.26.02 3.38 0 .9 0 1.62-.73 1.63-1.62.02-.85.02-1.7 0-2.55 0-.92-.75-1.66-1.66-1.65-.55-.01-1.11 0-1.66 0-.55 0-1.11-.01-1.66 0h-.02c-.91 0-1.64.74-1.64 1.65-.02.85-.02 1.7 0 2.55Zm1.7-2.5h3.27v2.43h-3.27v-2.43Zm8.3-7.63c.03-.86.73-1.54 1.59-1.56 1.11-.03 2.22-.02 3.33 0 .46-.03.86.31.89.77a.83.83 0 0 1-.77.89h-.15c-1.06.01-2.11 0-3.22 0v2.46c.1.04.2.07.29.11.4.14.62.57.49.97-.1.41-.49.68-.91.62-.83-.05-1.5-.72-1.54-1.56-.03-.9-.03-1.81 0-2.71Zm18.71 6.41c0 .12-.04.24-.1.34-.1.16-.22.31-.36.44-2.19 2.2-4.39 4.39-6.58 6.59-.66.66-1.01.66-1.66.02l-3.2-3.2a.843.843 0 0 1-.16-1.18c.28-.37.81-.44 1.18-.16.06.05.11.1.16.16.94.93 1.86 1.86 2.87 2.88.56-.58 1.07-1.13 1.6-1.65 1.55-1.56 3.1-3.12 4.68-4.66.23-.23.52-.37.84-.4.44.03.77.4.74.84Z"></path></svg>