<svg xmlns="http://www.w3.org/2000/svg" viewBox="0 0 80 80"><path d="M77.14 63.92c0-3.67-2.56-6.85-6.14-7.66-2.62-.61-5.36-.4-7.86.61-1 .41-2.05.67-3.13.79-2 .24-3.62-1.08-5.52-1.48l2.59-20.19c.94 0 1.77.02 2.59 0 1.04-.03 1.52-.48 1.54-1.54.03-1.64.03-3.28 0-4.92.01-.11.01-.23 0-.35-.1-.76-.8-1.29-1.56-1.19-.96-.02-1.92 0-2.88 0h-2.18c0-1.26-.02-2.41 0-3.55.03-.63-.22-1.24-.69-1.67-1.21-1.19-2.39-2.38-3.58-3.58-.8-.81-1.9-1.51-2.29-2.5-.4-1.01-.1-2.31-.11-3.48a.884.884 0 0 1 0-.23c.05-.19.14-.37.26-.52.55-.47 1.12-.91 1.75-1.42l3.45 6.89 2.36-1.2-3.65-7.34a3.51 3.51 0 0 1 3.31-1.42c.88.06 1.76.07 2.64.02 1.4 0 1.83-.42 1.83-1.8V1.82c0-1.37-.44-1.81-1.83-1.81C53.89 0 49.72 0 45.55 0c-6.54-.13-11.97 5.03-12.17 11.57-.07 1.19.42 1.73 1.62 1.75.77.01 1.54 0 2.34 0 0 1.14.02 2.15-.02 3.16-.04.25-.16.48-.34.65-.92.95-1.84 1.91-2.81 2.81-.59.53-.9 1.29-.84 2.08.04 1.46.01 2.92.01 4.37v1.55h-2.65v-.88c0-3.05-.02-6.09.01-9.14.03-.7-.21-1.39-.67-1.93-1.45-1.77-2.87-3.56-4.27-5.37-.22-.3-.35-.67-.36-1.05-.03-2.63-.01-5.26-.02-7.89 0-1.23-.47-1.7-1.7-1.7C21.3 0 18.92 0 16.53 0c-1.29 0-1.75.45-1.75 1.73 0 2.58.02 5.16-.02 7.73-.01.45-.16.89-.43 1.25-1.39 1.81-2.86 3.57-4.24 5.39a3.03 3.03 0 0 0-.59 1.69c-.06 3.1-.03 6.2-.03 9.3v.89c-1.71 0-3.32-.01-4.92 0-1.25 0-1.73.5-1.73 1.77v4.61c.01 1.12.49 1.6 1.62 1.62.82.01 1.65 0 2.45 0 .04.1.08.2.11.3l2.34 18.11c.89 7.05 1.8 14.09 2.7 21.14.2 1.51.55 1.8 2.06 1.8 9.49 0 18.97.02 28.46-.02 1.22-.1 2.43.28 3.38 1.05 1.1.7 2.29 1.24 3.54 1.63h4.35c1.61-.6 3.25-1.11 4.92-1.53a7.69 7.69 0 0 1 3.2.19c1.36.38 2.7.83 4.01 1.35h4.2c.12-.05.24-.1.36-.13 3.81-.67 6.6-3.96 6.62-7.83.04-2.71.04-5.42 0-8.12ZM54.65 2.71h2.56v2.58h-2.56V2.71Zm1.18 56.72a9.238 9.238 0 0 0 8.11 0c2.15-.95 4.57-1.12 6.84-.47 2.33.69 3.87 2.91 3.69 5.34a5.24 5.24 0 0 1-4.66 4.95c-2.14.31-4.32.02-6.3-.85a8.333 8.333 0 0 0-7.23 0c-2.07.91-4.37 1.19-6.6.82a5.306 5.306 0 0 1-4.34-4.52 5.29 5.29 0 0 1 4.56-5.95c.67-.06 1.34-.08 2.02-.11 1.35-.04 2.7.23 3.93.8Zm2.68-28.71v2.55H40.03v-2.55h18.48ZM36.42 10.65a1.31 1.31 0 0 1-.27-.06c.62-4.26 4.1-7.52 8.39-7.87 2.42-.17 4.86-.03 7.4-.03 0 1.05.02 2.08-.02 3.11-.04.2-.16.37-.32.48-1.69 1.38-3.39 2.74-5.09 4.09-.2.16-.44.25-.69.27-3.13.02-6.27 0-9.4 0Zm8.83 2.73v2.56h-5.22v-2.56h5.22Zm-7.33 6.5c.8-.86 1.95-1.31 3.12-1.25 1.47.11 2.95 0 4.43.04.37.02.73.17 1.01.42 1.71 1.67 3.39 3.36 5.06 5.08.23.26.37.59.4.94.05.93.02 1.86.02 2.83H36.01c.06-1.09.05-2.17-.03-3.26-.28-1.83.46-3.68 1.94-4.8Zm-.57 10.81v.86c0 2.66.03 5.31-.01 7.97-.08.82.39 1.6 1.15 1.9 2.4 1.16 4.79 2.35 7.14 3.6.51.28.92.71 1.18 1.23.24.61.05 1.3-.48 1.69-.5.45-1.24.51-1.82.17-1.58-.77-3.14-1.57-4.73-2.36-1.59-.79-2.44-.28-2.44 1.48v12.83a2.595 2.595 0 0 1-2.65 2.55v-11.9h-2.66v11.91h-2.62V50.73h-2.68v11.88h-2.69V50.7h-2.62v11.92c-1.29.04-2.41-.88-2.62-2.15-.05-.36-.07-.73-.07-1.09V30.7h18.59ZM17.48 2.71h5.21V9.3h-5.21V2.71Zm-.85 9.47c.11-.14.42-.16.63-.16 1.89-.01 3.78-.02 5.66 0 .25-.01.49.07.68.23.97 1.17 1.91 2.38 2.96 3.7H13.6c1.07-1.33 2.03-2.57 3.03-3.77Zm-4.49 6.53h15.84v9.22H12.14v-9.22ZM5.51 33.27v-2.56h10.52v2.56H5.5Zm37.14 31.14c0 2.89.06 5.78.12 8.66.06.53.16 1.05.3 1.56H14.62L9.66 36.05h6.44v23.38c-.08 1.39.34 2.76 1.17 3.87.94 1.25 2.4 1.99 3.96 2 4.53.04 9.07.07 13.6 0h.14a5.224 5.224 0 0 0 5.01-5.44c.03-3.34 0-6.67 0-10v-1.02c1.2.59 2.27 1.15 3.37 1.67.5.26 1.04.42 1.59.47 2.33.21 4.4-1.51 4.61-3.85A4.33 4.33 0 0 0 47 42.71c-2.1-1.07-4.2-2.14-6.33-3.16-.5-.16-.8-.67-.71-1.18.05-.75.01-1.51.01-2.31h14.4c-.21 1.68-.41 3.33-.62 4.97-.6 4.67-1.22 9.34-1.78 14.01-.09.72-.27.99-1.07.99h-.7c-4.41.23-7.8 3.99-7.57 8.39Zm26.48 12.93c-1.99.12-3.99-.24-5.82-1.03a8.284 8.284 0 0 0-7.16.14c-1.88.83-3.96 1.12-6 .83a5.233 5.233 0 0 1-4.83-5.04c-.06-.69 0-1.39 0-2 1.11.6 2.28 1.1 3.49 1.48 2.47.67 5.1.5 7.47-.48a8.517 8.517 0 0 1 7.25-.03 11.36 11.36 0 0 0 9.49-.24c.47-.26.93-.56 1.37-.88.8 4.25-1.72 7.13-5.25 7.25Zm-11.92-13.4h-2.57v-2.55h2.57v2.55Zm-7.87-1.22h2.56v2.56h-2.56v-2.56Zm15.8 2.55h-2.52v-2.59h2.52v2.59Zm5.33-1.31h-2.55v-2.58h2.55v2.58Z"></path></svg>