<svg xmlns="http://www.w3.org/2000/svg" viewBox="0 0 80 80"><path d="M74.91.15c-.09-.04-.17-.09-.25-.14h-1.68c-1.9.56-3.01 1.93-3.91 3.66-4.79 9.14-9.64 18.26-14.45 27.4-.19.47-.66.77-1.17.74-3.55.13-6.7 1.37-8.83 4.35a38.912 38.912 0 0 1-8.65 8.63c-5.3 3.92-10.91 7.25-17.21 9.24-1.36.42-1.79 1.18-1.42 2.59.12.45.27.89.44 1.33.99 2.36 2.32 4.57 3.94 6.56C28.5 73.05 37.46 77.6 47.91 79.4c1.48.25 2.97.42 4.45.63h1.53c.61-.3 1.05-.85 1.21-1.51.63-2.03 1.32-4.04 1.94-6.08 2.71-9.02 5.29-18.08 6.25-27.52.26-2.55.3-5.1-.77-7.51-.19-.39-.17-.85.07-1.22 3.39-6.4 6.78-12.8 10.16-19.2 1.73-3.27 3.51-6.51 5.15-9.82.21-.36.36-.75.47-1.16.66-2.56-.88-5.18-3.45-5.84Zm-16.6 55.79c-1.22-.82-2.32-1.61-3.46-2.33-.25-.18-.56-.28-.87-.29-.84-.01-1.53.66-1.54 1.49-.02.61.3 1.18.83 1.49 1.23.83 2.45 1.69 3.69 2.5.41.18.6.66.41 1.07-1.59 5.43-3.17 10.86-4.76 16.29-.09.31-.14.64-.63.6-4.03-.35-8-1.24-11.8-2.64.16-.23.28-.42.41-.59 2.76-3.53 5.17-7.31 7.2-11.29.53-1.03.35-1.9-.47-2.37-.83-.48-1.71-.15-2.25.91a66.03 66.03 0 0 1-7.6 11.67c-.1.12-.2.23-.33.39-3.58-1.66-6.87-3.9-9.72-6.63 3.04-1.92 6.07-3.77 9.05-5.72 1.26-.82 2.41-1.83 3.6-2.77.93-.74 1.11-1.66.53-2.42-.58-.76-1.53-.8-2.42-.05a66.67 66.67 0 0 1-12.53 8.15c-.44.23-.71.24-1-.2-.98-1.46-2.01-2.88-2.97-4.35a22.4 22.4 0 0 1-1.06-2.07c.44-.17.81-.31 1.19-.46a65.975 65.975 0 0 0 16.41-9.33l.03-.03c.35-.36.92-.37 1.28-.02 1.15.85 2.36 1.64 3.55 2.44.04.03.08.07.12.1.7.5 1.68.34 2.18-.37.04-.05.07-.11.1-.16.41-.79.11-1.77-.68-2.18-1.11-.77-2.23-1.52-3.4-2.32.81-.79 1.54-1.54 2.33-2.23.14-.12.56-.03.77.1 3.04 1.95 6.06 3.93 9.09 5.9 1.7 1.1 3.4 2.2 5.08 3.32.2.13.45.44.42.62-.21 1.25-.49 2.48-.76 3.81Zm1.96-11.96c-.11 1.45-.31 2.89-.49 4.52l-13.74-8.93a8.028 8.028 0 0 1 6.46-4.53c1.11-.12 2.23-.05 3.32.22 2.59.66 4.22 2.8 4.46 5.68.08 1.01.07 2.03 0 3.04ZM75.31 5.3c-.08.27-.19.54-.32.79-4.86 9.2-9.72 18.39-14.59 27.59-.06.11-.13.22-.2.33l-2.79-1.66c1.57-2.96 3.13-5.92 4.7-8.89 3.26-6.18 6.53-12.35 9.8-18.53.18-.37.39-.73.63-1.07.41-.67 1.27-.9 1.96-.53.72.37 1.06 1.21.81 1.98ZM13.93 53.99c.1-3.51-2.67-6.43-6.18-6.53a6.366 6.366 0 0 0-6.25 6.15c-.11 3.51 2.64 6.45 6.15 6.56a6.364 6.364 0 0 0 6.28-6.18Zm-9.36-.08a3.21 3.21 0 0 1 3.13-3.3h.07c1.73.03 3.11 1.46 3.08 3.19v.03a3.148 3.148 0 0 1-3.11 3.21 3.216 3.216 0 0 1-3.17-3.13Zm7.36 10.55a4.334 4.334 0 0 0-4.47 4.19 4.395 4.395 0 0 0 4.27 4.47c2.36.03 4.31-1.83 4.39-4.19.08-2.39-1.8-4.39-4.19-4.47Zm-.17 5.5a1.285 1.285 0 1 1 .07-2.57 1.288 1.288 0 0 1-.07 2.57Zm6.16-24.85c2.28.05 4.18-1.77 4.22-4.05.02-2.29-1.8-4.18-4.1-4.22a4.145 4.145 0 0 0-4.18 4.05 4.134 4.134 0 0 0 4.05 4.22Zm.09-5.12h.05c.58.02 1.03.5 1.01 1.07 0 .59-.46 1.08-1.05 1.1-.59-.02-1.06-.5-1.07-1.09 0-.59.47-1.07 1.06-1.08Zm32.54 11.53c.02.85-.65 1.56-1.5 1.58h-.04c-.86-.05-1.53-.76-1.53-1.62a1.54 1.54 0 0 1 3.08.04Z"></path></svg>