<svg xmlns="http://www.w3.org/2000/svg" viewBox="0 0 80 80"><path d="M78.18 3.91c-3.18.06-6.24 1.2-8.68 3.24-1.79 1.51-3.39 3.24-5.14 4.79a7.376 7.376 0 0 1-9.96 0c-1.21-1.06-2.32-2.25-3.48-3.37a15.199 15.199 0 0 0-4.62-3.28c-1.13-.46-2.29-.82-3.48-1.09-.05-.01-.09-.02-.14-.02a1.12 1.12 0 0 0-1.23.99c-.13.62.25 1.23.87 1.38.24.09.5.14.75.2 1.53.33 2.97 1.01 4.19 2 1.6 1.37 3.12 2.83 4.63 4.3 1.7 1.83 4.01 2.98 6.5 3.23.07 0 .13.07.23.13v14.67c0 1.25.44 1.88 1.28 1.87.82-.01 1.21-.6 1.21-1.83V16.9c0-.48.08-.74.63-.84 1.44-.27 2.78-.94 3.86-1.93 1.4-1.28 2.76-2.62 4.13-3.92 2.05-2.13 4.79-3.45 7.73-3.72v52.22c-.25.05-.45.11-.66.13-3.05.35-5.91 1.67-8.14 3.78-1.54 1.4-3.01 2.88-4.54 4.3-.84.78-1.88 1.3-3.02 1.5V39.08c.02-.31 0-.62-.03-.94-.06-.57-.53-1.01-1.11-1.02-.57-.09-1.11.28-1.24.85-.08.35-.12.72-.11 1.08v29.53a6.168 6.168 0 0 1-3.74-1.48c-1.45-1.31-2.84-2.67-4.26-4.02a14.498 14.498 0 0 0-4.76-3.21c-6.19-2.34-11.74-1.24-16.58 3.3-1.4 1.32-2.77 2.68-4.21 3.96a5.976 5.976 0 0 1-3.69 1.43v-9.73c0-.34-.03-.67-.11-1a1.1 1.1 0 0 0-1.24-.84c-.58.01-1.05.45-1.11 1.02-.03.26-.04.52-.03.78v9.57l-.21.2c-.96-.47-1.89-1.02-2.76-1.65-1.37-1.15-2.61-2.46-3.91-3.71a15.298 15.298 0 0 0-7.16-4.09c-.77-.18-1.56-.29-2.36-.43V29.47c0-.73-.14-1.37-.94-1.6-.76-.21-1.2.26-1.54.87V65.3c.31.56.91.89 1.55.87 2.11.08 4.09 1.02 5.49 2.59 1.41 1.39 2.8 2.81 4.32 4.07 5.03 4.1 12.17 4.39 17.51.7 1.93-1.38 3.55-3.2 5.36-4.76.85-.83 1.83-1.52 2.91-2.04a7.44 7.44 0 0 1 8.45 1.83c1.49 1.46 2.94 2.96 4.55 4.28a14.577 14.577 0 0 0 17.45.71c1.91-1.48 3.72-3.1 5.4-4.83a8.162 8.162 0 0 1 5.43-2.58c1.28-.05 1.59-.47 1.59-1.8V5.68c0-1.42-.4-1.83-1.82-1.78Zm-.74 59.74c-.79.22-1.62.4-2.42.7-1.44.62-2.74 1.52-3.82 2.65a51.738 51.738 0 0 1-4.91 4.45 12.194 12.194 0 0 1-14.79-.67c-1.66-1.42-3.18-3-4.76-4.51-4.05-3.63-10.24-3.43-14.03.47-1.58 1.7-3.29 3.26-5.12 4.68a12.197 12.197 0 0 1-14.86-.65c-1.13-.95-2.19-2-3.23-3.06-1.95-1.99-4.04-3.68-6.97-3.95v-2.49c2.94.27 5.69 1.59 7.74 3.72 1.18 1.14 2.3 2.35 3.53 3.43 3.99 3.77 10.28 3.61 14.07-.36 1.49-1.56 3.07-3.04 4.74-4.41a12.363 12.363 0 0 1 16.26 1.19c.99.96 2.01 1.9 2.95 2.91A10.22 10.22 0 0 0 67 67.73c1.4-1.47 2.88-2.85 4.45-4.14 1.72-1.37 3.81-2.19 6-2.33v2.4ZM.21 21.76c-.06-.08-.13-.15-.21-.21V4.67c.43-.6 1.17-.9 1.9-.78 3.7.17 7.22 1.7 9.86 4.3 1.28 1.22 2.5 2.51 3.82 3.68a7.384 7.384 0 0 0 10.08 0c1.5-1.33 2.86-2.8 4.34-4.15 1.86-1.73 4.15-2.92 6.63-3.47.2-.05.41-.08.62-.1.62-.09 1.21.34 1.3.96.15.63-.22 1.25-.84 1.4h-.01c-.98.24-1.94.56-2.86.98-1.41.87-2.76 1.83-4.04 2.88-.78.69-1.53 1.42-2.23 2.19-1.97 1.97-3.54 3.3-7.18 3.75V50.8c.01.36-.02.73-.1 1.08-.11.6-.67 1-1.27.9-.57-.02-1.04-.46-1.09-1.04-.03-.31-.04-.62-.03-.94 0-11.25 0-22.49.01-33.74 0-.64-.12-.95-.83-1.08a10.47 10.47 0 0 1-5.06-3.08c-1.5-1.41-2.94-2.87-4.53-4.18A10.423 10.423 0 0 0 2.5 6.45v14.27c.11.64-.25 1.27-.85 1.51-.53.21-1.14 0-1.43-.49Z"></path></svg>