<svg xmlns="http://www.w3.org/2000/svg" viewBox="0 0 50 50"><path d="M39.41 45.89V3.86C39.35 1.5 37.83 0 35.47 0H14.52c-1.26-.06-2.47.51-3.22 1.52a4.08 4.08 0 0 0-.71 2.58v41.84c-.06 1.05.29 2.08.99 2.88.6.6 1.36 1.01 2.19 1.18h22.46c.83-.17 1.59-.58 2.19-1.18.7-.81 1.05-1.86.99-2.92ZM12.21 3c.19-.94.94-1.4 1.88-1.52.13-.01.26-.02.39-.01h21.04c1.27 0 2.25.71 2.36 1.81.08.83.02 1.68.02 2.57H12.01c0-.95.07-1.9.2-2.85Zm25.73 43.07c0 1.6-.89 2.46-2.49 2.46h-20.9c-1.6 0-2.48-.87-2.49-2.47v-4.64c0-.07.02-.15.03-.22h1.97c.58 0 .9-.28.9-.73s-.32-.73-.9-.73h-1.98V7.37H37.9v32.37H17.62c-.18 0-.36 0-.54.02-.31.05-.55.29-.6.6-.06.39.21.76.6.82.18.02.36.03.54.02H37.9c.01.18.03.32.03.46v4.39ZM25.05 42.7c-1.21-.03-2.21.93-2.23 2.14a2.19 2.19 0 0 0 2.12 2.23h.01c1.21.03 2.21-.93 2.23-2.13.03-1.21-.93-2.21-2.14-2.23ZM25 45.6a.726.726 0 1 1 .72-.76v.02c0 .4-.32.73-.72.73Zm3.64-41.98c.02.4-.28.75-.68.77h-.1c-.93.02-1.85.02-2.78 0a.72.72 0 0 1-.79-.64v-.09c0-.4.33-.73.74-.73h.07c.45-.01.91 0 1.36 0 .47 0 .94-.01 1.41 0 .4-.02.75.28.77.68Zm-5.83.05a.726.726 0 0 1-1.45-.01v-.03c.02-.39.34-.69.73-.7.4 0 .72.33.72.73Z"></path></svg>