<svg xmlns="http://www.w3.org/2000/svg" viewBox="0 0 80 80"><path d="M78.9 39.94c-.84-.92-2.06-1.4-3.29-1.29-1.73 0-1.65-.04-2.3-1.66-1.15-2.89-2.41-5.73-3.59-8.6-.2-.47-.31-.97-.35-1.47-.06-.88-.01-1.76-.02-2.65.07-1.6-.81-3.1-2.23-3.82a.984.984 0 0 1-.41-.7c-.03-1.79-.03-3.58 0-5.37 0-.25.07-.5.22-.7 1.14-1.23 2.32-2.44 3.59-3.77.38.42.71.82 1.08 1.17a4.039 4.039 0 0 0 5.64.04 8.827 8.827 0 0 0 2.77-3.57V5.99c-.82-2.36-2.81-3.74-4.57-5.27-.62-.43-1.36-.65-2.11-.63C64.48.05 55.63.06 46.78.07h-.24a2.6 2.6 0 0 0-2.5 2.69c-.03 1.27-.02 2.55 0 3.82v.35c.1 1.47 1.37 2.58 2.84 2.48H48c0 1.51.01 2.98-.02 4.45 0 .18-.23.39-.4.52-.66.51-1.34.99-2 1.5a3.98 3.98 0 0 0-.81 5.44 3.978 3.978 0 0 0 5.55.96c1.43-1 2.81-2.06 4.19-3.13 1-.79 1.56-2.01 1.49-3.28-.01-1.76 0-3.53.16-5.38.42.62.87 1.22 1.36 1.79.89.92 1.32 2.19 1.17 3.46-.1 1.32 0 2.65-.04 3.97-.03.31-.2.58-.45.76a4.115 4.115 0 0 0-2.2 3.69v.86c.08 5.17-2.04 9.44-5.5 13.13-.33.3-.76.47-1.21.49-1.29.06-2.59.02-3.96.02 0-.98.01-1.86 0-2.73-.04-2.34.07-4.69-.17-7-.35-3.15-2.04-6-4.64-7.82-.36-.24-.57-.65-.53-1.09.03-3.59-.04-7.17.04-10.76.03-.43-.06-.87-.26-1.25-.59-1.14-2-1.59-3.14-.99-2.12.96-4.55.96-6.67 0a2.198 2.198 0 0 0-3.27 2.19c-.01 3.66 0 7.33-.02 10.99-.03.31-.17.6-.39.81-.48.47-1.03.87-1.58 1.33-.6-.49-1.24-.96-1.83-1.5a.993.993 0 0 1-.2-.68c-.01-3.2.02-6.39-.02-9.59a6.625 6.625 0 0 0-4-5.95 6.633 6.633 0 0 0-8.73 3.46c-.35.92-.54 1.89-.55 2.88-.07 3.06-.01 6.13-.04 9.2-.02.33-.17.65-.42.87a11.878 11.878 0 0 0-4.89 9.73c-.02 2.39-.02 4.78 0 7.17 0 .54-.12.76-.7.85-1.43.2-2.62 1.19-3.08 2.56-.07.19-.16.37-.24.56v4.21a4.481 4.481 0 0 0 2.62 2.99c.19.08.33.43.39.68 1.45 6.61 2.9 13.21 4.34 19.82.35 1.62.71 3.24 1.07 4.86a6.566 6.566 0 0 0 5.37 5.38c.1.03.19.07.29.12h51.87c.42-.12.86-.21 1.26-.37a6.562 6.562 0 0 0 4.36-4.98c1.78-8.12 3.55-16.25 5.3-24.38.06-.64.47-1.19 1.06-1.43 1.04-.55 1.8-1.53 2.07-2.68v-4.21c-.31-.68-.68-1.32-1.1-1.93ZM66.67 26.67h-7.93c0-1.01-.07-2.02.02-3 .09-.6.64-1.03 1.25-.96 1.77-.02 3.53-.03 5.3 0h.1a1.3 1.3 0 0 1 1.26 1.32c.05.85 0 1.7 0 2.65ZM61.38 20v-5.21h2.58V20h-2.58ZM46.75 6.72V2.8h3.85v3.92h-3.85Zm6.52 9.54c-.06.36-.25.67-.54.89-1.27 1-2.56 1.96-3.86 2.9-.03.03-.06.05-.1.08-.59.43-1.41.29-1.84-.3-.01-.02-.02-.03-.03-.05-.41-.63-.23-1.47.4-1.87.84-.65 1.69-1.3 2.56-1.91.53-.34.84-.95.8-1.58-.03-1.63 0-3.26 0-4.95h2.64c0 2.28.02 4.53-.02 6.79Zm5.34-6.92c-.43-.56-.87-1.1-1.25-1.69-.38-.64-1.1-1-1.84-.9-.69.04-1.39 0-2.15 0V2.73h.81c6.22 0 12.44 0 18.65-.01.68-.04 1.34.23 1.8.73.71.76 1.47 1.47 2.2 2.21a1.329 1.329 0 0 1 0 2.12c-.45.48-.9.94-1.38 1.37a1.328 1.328 0 0 1-2.01 0c-.64-.6-1.25-1.25-1.88-1.87a1.366 1.366 0 0 0-2.23.03c-1.37 1.42-2.72 2.87-4.12 4.26-.29.27-.66.44-1.06.47-1.14.05-2.46.36-3.38-.1s-1.44-1.71-2.14-2.61Zm-1.66 23.82c.46-1.05.84-2.12 1.14-3.22.05-.37.39-.63.76-.58 2.6.02 5.21 0 7.81.02.27 0 .52.12.68.33 1.23 2.89 2.41 5.79 3.61 8.68v.21H54c1-1.81 2.04-3.59 2.95-5.45ZM29.39 9.72c2.56.9 5.35.89 7.91-.02v9.67c-2.57-.86-5.34-.85-7.91 0V9.72Zm-5.21 19.24c.72-3.82 3.75-6.8 7.58-7.45 5.07-.87 9.88 2.54 10.75 7.61.09.59.14 1.19.14 1.78.01 2.54 0 5.09 0 7.73h-2.67v-2.81c0-1.25.02-2.5 0-3.74v-.16c-.05-.73-.68-1.28-1.41-1.23s-1.28.68-1.23 1.41c-.02 1.87 0 3.74 0 5.61v.9H26.69v-.93c0-1.4.02-2.81 0-4.21.05-1.5-.76-2.9-2.09-3.59a.713.713 0 0 1-.4-.92ZM24 33.67v20.65c0 1.18-.47 1.63-1.68 1.63h-8.67c-1.21 0-1.65-.44-1.65-1.65V33.73c0-1.3.42-1.71 1.74-1.71h8.58c1.2 0 1.67.44 1.67 1.64Zm-3.36 38.25c-.86.14-1.43-.49-1.61-1.76l-1.5-10.79c-.03-.2-.03-.41-.05-.71h2.63l.81 5.76c.23 1.7.47 3.4.7 5.09.01.11.04.21.06.31.18 1.25-.17 1.95-1.04 2.1ZM13.65 7.51a3.798 3.798 0 0 1 4.33-.24c1.83 1.04 2.2 2.75 1.98 4.76h-7.88c-.23-1.8.01-3.4 1.57-4.52Zm6.31 7.26v4.6c-2.57-.86-5.34-.86-7.91 0v-4.6h7.91ZM6.71 30.34c0-3.71 2.34-7.02 5.84-8.27 3.38-1.45 7.31-.7 9.91 1.9.42.3.53.89.23 1.31-.57 1.29-.98 2.66-1.49 4.09-2.39 0-4.91 0-7.43.01a6.81 6.81 0 0 0-1.62.17 3.817 3.817 0 0 0-2.81 3.62c-.04 1.79 0 3.58 0 5.43H6.66v-1.72c0-2.18-.08-4.37.03-6.55ZM4.18 46.66c-.12.01-.23.01-.35 0-.75-.11-1.28-.8-1.17-1.56-.01-.8-.02-1.61 0-2.41.02-.66.35-1.25 1.02-1.28 1.86-.07 3.72-.02 5.62-.02v5.28H6.91c-.91 0-1.82.02-2.72 0Zm68.38 10.77c-1.18 5.37-2.35 10.75-3.51 16.14-.56 2.58-1.94 3.71-4.59 3.71H15.49c-2.59 0-4-1.15-4.54-3.68-1.7-7.79-3.4-15.57-5.09-23.36-.06-.27-.1-.55-.16-.87h3.65c0 1.48-.01 2.93 0 4.38-.03.6 0 1.19.1 1.78a3.966 3.966 0 0 0 4.05 3.1c1.23.03 1.26.03 1.43 1.26.51 3.62 1 7.25 1.48 10.88.1 1.57 1.09 2.95 2.56 3.54 1.33.58 2.87.34 3.96-.6a3.75 3.75 0 0 0 1.45-3.59c-.37-2.91-.78-5.82-1.18-8.72-.12-.9-.24-1.8-.37-2.74.26-.05.49-.08.71-.13a4.018 4.018 0 0 0 3.13-4.04c.02-1.68 0-3.37 0-5.1h47.64l-1.75 8.05Zm4.76-12.07c-.03.75-.66 1.34-1.41 1.31-.23.02-.46 0-.7 0H26.72v-5.33h48.59c1.67 0 2.02.35 2.02 2.01 0 .62.01 1.25 0 1.87v.14ZM59.88 74.63a4.055 4.055 0 0 0 3.68-3.73c.66-4.78 1.31-9.57 1.95-14.35a3.979 3.979 0 0 0-3.31-4.5 3.98 3.98 0 0 0-4.56 3.3c-.38 2.46-.71 4.93-1.05 7.4-.35 2.57-.69 5.14-1.05 7.8.04.41.11.82.2 1.22a3.95 3.95 0 0 0 4.15 2.85Zm-.45-12.99c.24-1.75.47-3.5.73-5.25.04-.44.17-.86.39-1.24.33-.51 1-.67 1.53-.38.59.23.92.84.79 1.46-.3 2.21-.59 4.43-.9 6.64l-1.05 7.56c-.13.96-.62 1.52-1.37 1.52-.81 0-1.35-.65-1.3-1.72.38-2.77.78-5.68 1.17-8.59Zm-3.9 8.91Zm-18.78-7.2Zm-7.67 7.37a4.022 4.022 0 0 0 4.15 3.89h.15c2.19-.15 3.84-2.06 3.69-4.25-.08-2.34-.21-4.67-.32-7-.12-2.49-.23-4.98-.35-7.47a4.042 4.042 0 0 0-2.77-3.69c-.5-.17-1.03-.23-1.56-.19a3.957 3.957 0 0 0-3.65 4.25c.19 4.83.42 9.65.67 14.48Zm2.11-15.3c.21-.57.81-.88 1.4-.74.65.09 1.13.65 1.12 1.31.07.91.1 1.81.14 2.72l.21 4.67c.1 2.31.22 4.62.31 6.93.04.97-.48 1.63-1.25 1.66h-.07c-.8-.06-1.39-.76-1.33-1.55-.23-4.67-.44-9.34-.65-14.01-.03-.33.01-.67.12-.99Zm15.62 19.27c2.2.05 4.03-1.7 4.07-3.91.26-4.88.49-9.75.68-14.63v-.11c.08-2.16-1.6-3.97-3.76-4.05h-.09a4.022 4.022 0 0 0-4.14 3.9c-.13 2.49-.24 4.98-.35 7.47h-.16c0 1.17.02 2.33 0 3.5-.03 1.17-.12 2.33-.16 3.5 0 .08-.01.17-.01.25-.05 2.2 1.7 4.03 3.91 4.07Zm-1.23-4.32c.09-2.34.21-4.67.31-7.01.11-2.41.22-4.83.34-7.24.05-.94.56-1.48 1.37-1.47a1.282 1.282 0 0 1 1.29 1.52c-.21 4.78-.43 9.55-.67 14.32v.05c0 .78-.63 1.41-1.41 1.42-.03 0-.06 0-.09-.01-.75-.12-1.27-.82-1.15-1.58ZM33.29 16.02h-.03c-.71 0-1.27-.59-1.27-1.29v-.08c.04-.7.62-1.26 1.32-1.26.73.02 1.32.62 1.32 1.36-.02.73-.63 1.3-1.35 1.28Zm1.35-1.28Z"></path></svg>