<svg xmlns="http://www.w3.org/2000/svg" viewBox="0 0 50 50"><path d="M48.66 20.16c-2.34.01-4.69 0-7.03 0h-.54s-.05-.1-.06-.15v-1.56c0-1-.34-1.34-1.36-1.34H19.32c-.21 0-.42.02-.63.07-.37.1-.64.4-.69.78-.08.52.28 1 .8 1.08.21.02.42.03.63.03h19.62c.01.17.03.28.03.39 0 2.41.04 4.82-.02 7.22-.01 1.15-.13 2.3-.35 3.44-.96 5.09-4.04 9.53-8.47 12.23-.23.14-.5.22-.77.22-5.97.01-11.94.01-17.91 0-.27 0-.53-.08-.76-.23-5.75-3.75-8.69-9.06-8.82-15.92-.04-2.28 0-4.56 0-6.83v-.53h6.44c.51.06.98-.3 1.06-.81a.878.878 0 0 0-.52-1c-.22-.09-.47-.14-.71-.13H1.32c-.55-.07-1.08.25-1.28.76v10.06c.13.83.23 1.67.38 2.49.7 3.74 2.45 7.21 5.04 10.01.64.7 1.24 1.43 1.86 2.15H6.21c-1.59 0-3.19.02-4.78 0-.56-.07-1.11.2-1.38.69v1.07c.12.43.2.88.36 1.3a6.34 6.34 0 0 0 5.09 4.28c.08.02.15.05.22.09H37.7c.55-.13 1.09-.29 1.62-.48a6.307 6.307 0 0 0 4.03-5.67c.07-.88-.33-1.27-1.2-1.27h-8.67l-.11-.14c.11-.05.22-.12.32-.19 1.52-1.26 2.84-2.74 3.92-4.38.14-.24.4-.38.68-.35 1.23.03 2.47 0 3.7-.12 4.1-.58 7.32-3.79 7.92-7.88.03-.14.06-.28.11-.41v-8.2c-.23-.52-.78-.82-1.34-.74Zm-7.38 24.38a4.157 4.157 0 0 1-2.32 2.97c-.67.32-1.41.49-2.15.51-10.09.02-20.17.03-30.26.02-2.13.06-4-1.41-4.44-3.5h39.17Zm-.14-18.49h2.98c.04 1.78.3 3.6-1.39 4.89-.63.49-1.42.73-2.22.67l.63-5.57Zm6.91 2a7.37 7.37 0 0 1-5.83 7.32c-1.09.17-2.18.26-3.28.28.29-.7.49-1.25.75-1.77.13-.16.33-.25.53-.25 1.31.07 2.61-.32 3.66-1.11 1.38-1.01 2.2-2.6 2.21-4.31.03-.99.01-1.98 0-2.98 0-.79-.36-1.16-1.17-1.17-1.11-.01-2.21 0-3.32 0h-.56v-1.91h6.97c.01.13.03.25.03.38 0 1.84.01 3.67 0 5.51ZM19.75 6.43c-.9-1.1-1.47-2.3-1.28-3.76.14-1.07.47-2.05 1.46-2.67h.49c.81.5.91.94.4 1.76-.66.97-.56 2.25.22 3.12.66.74 1.14 1.63 1.41 2.58.39 1.61 0 3.3-1.04 4.59-.17.24-.36.46-.56.67-.34.33-.87.37-1.25.09a.938.938 0 0 1-.26-1.22c.13-.22.28-.44.45-.63 1.17-1.5 1.18-3.07-.02-4.54Zm4.22.01c-.34-1.31-.05-2.71.79-3.78.23-.22.5-.41.79-.55.58.06 1.01.57.96 1.15 0 .1-.03.19-.07.29-.06.12-.12.23-.19.34-.7.96-.64 2.28.16 3.16.64.72 1.11 1.57 1.4 2.49.46 1.68.05 3.48-1.09 4.8-.25.34-.59.62-.98.8-.32.03-.64-.07-.89-.29a.769.769 0 0 1-.17-.98c.11-.21.25-.42.41-.6 1.28-1.63 1.28-3.13 0-4.74-.52-.6-.91-1.32-1.12-2.09Zm-10.94-.68c-.1-1.13.24-2.26.94-3.15.25-.36.73-.5 1.14-.33.41.16.66.57.62 1.01-.08.2-.17.39-.27.57-.74 1-.65 2.39.22 3.28.83.93 1.35 2.09 1.49 3.33.11 1.68-.54 3.32-1.76 4.48-.39.36-.99.34-1.35-.05a.974.974 0 0 1-.15-1.09c.14-.24.3-.46.48-.67a3.345 3.345 0 0 0-.03-4.5 5.35 5.35 0 0 1-1.32-2.88Zm17.2 30.71c.05-.07.1-.13.17-.19.14-.18.3-.34.46-.51 1.68-1.88 2.81-4.18 3.26-6.65.13-.79.21-1.58.25-2.37.06-.71.43-1.16 1.01-1.14.6.01.97.49.95 1.23 0 .18-.02.36-.02.54-.21 3.82-1.78 7.44-4.43 10.2a.981.981 0 0 1-1.63-1.09Zm-2.43 3.98c-.53 0-.95-.44-.94-.96.02-.55.46-.98 1-.98.52.02.94.45.94.98 0 .54-.45.97-.99.97ZM13.01 18.13a.96.96 0 0 1 .93-.99h.03c.53 0 .96.42.98.95 0 .53-.42.97-.95.97a.96.96 0 0 1-.99-.93Zm.99.93Z"></path></svg>